<?xml version="1.0" encoding="UTF-8" standalone="no"?>
<!-- Created with Inkscape (http://www.inkscape.org/) -->

<svg
   xmlns:dc="http://purl.org/dc/elements/1.1/"
   xmlns:cc="http://creativecommons.org/ns#"
   xmlns:rdf="http://www.w3.org/1999/02/22-rdf-syntax-ns#"
   xmlns:svg="http://www.w3.org/2000/svg"
   xmlns="http://www.w3.org/2000/svg"
   xmlns:sodipodi="http://sodipodi.sourceforge.net/DTD/sodipodi-0.dtd"
   xmlns:inkscape="http://www.inkscape.org/namespaces/inkscape"
   width="210mm"
   height="297mm"
   viewBox="0 0 210 297"
   version="1.1"
   id="svg1997"
   inkscape:version="0.92.3 (2405546, 2018-03-11)"
   sodipodi:docname="containers.svg">
  <defs
     id="defs1991">
    <inkscape:perspective
       sodipodi:type="inkscape:persp3d"
       inkscape:vp_x="0 : 148.5 : 1"
       inkscape:vp_y="0 : 1000 : 0"
       inkscape:vp_z="210 : 148.5 : 1"
       inkscape:persp3d-origin="105 : 99 : 1"
       id="perspective2545" />
  </defs>
  <sodipodi:namedview
     id="base"
     pagecolor="#ffffff"
     bordercolor="#666666"
     borderopacity="1.0"
     inkscape:pageopacity="0.0"
     inkscape:pageshadow="2"
     inkscape:zoom="0.70710678"
     inkscape:cx="310.61375"
     inkscape:cy="785.36086"
     inkscape:document-units="mm"
     inkscape:current-layer="layer1"
     showgrid="true"
     inkscape:window-width="1600"
     inkscape:window-height="837"
     inkscape:window-x="-8"
     inkscape:window-y="-8"
     inkscape:window-maximized="1">
    <inkscape:grid
       type="xygrid"
       id="grid3326" />
  </sodipodi:namedview>
  <metadata
     id="metadata1994">
    <rdf:RDF>
      <cc:Work
         rdf:about="">
        <dc:format>image/svg+xml</dc:format>
        <dc:type
           rdf:resource="http://purl.org/dc/dcmitype/StillImage" />
        <dc:title></dc:title>
      </cc:Work>
    </rdf:RDF>
  </metadata>
  <g
     inkscape:label="Ebene 1"
     inkscape:groupmode="layer"
     id="layer1">
    <ellipse
       style="fill:none;fill-opacity:1;stroke:#000000;stroke-width:0.10596676;stroke-miterlimit:4;stroke-dasharray:none;stroke-dashoffset:0;stroke-opacity:1"
       id="path2561-1-5-3-3"
       cx="77.791687"
       cy="107.92471"
       rx="6.3790116"
       ry="1.9875413"
       inkscape:export-xdpi="96"
       inkscape:export-ydpi="96" />
    <path
       style="fill:none;stroke:#000000;stroke-width:0.12153744px;stroke-linecap:butt;stroke-linejoin:miter;stroke-opacity:1"
       d="M 71.4375,80.041667 V 107.82292"
       id="path2582-4-8-9"
       inkscape:connector-curvature="0"
       inkscape:export-xdpi="96"
       inkscape:export-ydpi="96" />
    <path
       style="fill:none;stroke:#000000;stroke-width:0.12153744px;stroke-linecap:butt;stroke-linejoin:miter;stroke-opacity:1"
       d="M 84.198351,80.041668 V 107.82292"
       id="path2584-0-0-8"
       inkscape:connector-curvature="0"
       inkscape:export-xdpi="96"
       inkscape:export-ydpi="96" />
    <ellipse
       style="fill:none;fill-opacity:1;stroke:#000000;stroke-width:0.10596676;stroke-miterlimit:4;stroke-dasharray:none;stroke-dashoffset:0;stroke-opacity:1"
       id="path2561-1-6-5-5-5"
       cx="77.838936"
       cy="80.033218"
       rx="6.3790116"
       ry="1.9875413"
       inkscape:export-xdpi="96"
       inkscape:export-ydpi="96" />
    <ellipse
       style="fill:none;fill-opacity:1;stroke:#000000;stroke-width:0.10596676;stroke-miterlimit:4;stroke-dasharray:none;stroke-dashoffset:0;stroke-opacity:1"
       id="path2561-1-5-3-6"
       cx="38.57251"
       cy="107.92471"
       rx="6.3790116"
       ry="1.9875413"
       inkscape:export-xdpi="96"
       inkscape:export-ydpi="96" />
    <path
       style="fill:none;stroke:#000000;stroke-width:0.12153744px;stroke-linecap:butt;stroke-linejoin:miter;stroke-opacity:1"
       d="M 32.218316,80.041666 V 107.82292"
       id="path2582-4-8-90"
       inkscape:connector-curvature="0"
       inkscape:export-xdpi="96"
       inkscape:export-ydpi="96" />
    <path
       style="fill:none;stroke:#000000;stroke-width:0.12153744px;stroke-linecap:butt;stroke-linejoin:miter;stroke-opacity:1"
       d="M 44.979167,80.041667 V 107.82292"
       id="path2584-0-0-2"
       inkscape:connector-curvature="0"
       inkscape:export-xdpi="96"
       inkscape:export-ydpi="96" />
    <ellipse
       style="fill:none;fill-opacity:1;stroke:#000000;stroke-width:0.10596676;stroke-miterlimit:4;stroke-dasharray:none;stroke-dashoffset:0;stroke-opacity:1"
       id="path2561-1-6-5-5-3"
       cx="38.619755"
       cy="80.033218"
       rx="6.3790116"
       ry="1.9875413"
       inkscape:export-xdpi="96"
       inkscape:export-ydpi="96" />
    <ellipse
       style="fill:none;fill-opacity:1;stroke:#000000;stroke-width:0.10596676;stroke-miterlimit:4;stroke-dasharray:none;stroke-dashoffset:0;stroke-opacity:1"
       id="path2561-1-5-3-3-1"
       cx="96.312515"
       cy="94.695549"
       rx="6.3790116"
       ry="1.9875413"
       inkscape:export-xdpi="96"
       inkscape:export-ydpi="96" />
    <path
       style="fill:none;stroke:#000000;stroke-width:0.12153744px;stroke-linecap:butt;stroke-linejoin:miter;stroke-opacity:1"
       d="M 89.958333,66.8125 V 94.593753"
       id="path2582-4-8-9-4"
       inkscape:connector-curvature="0"
       inkscape:export-xdpi="96"
       inkscape:export-ydpi="96" />
    <path
       style="fill:none;stroke:#000000;stroke-width:0.12153744px;stroke-linecap:butt;stroke-linejoin:miter;stroke-opacity:1"
       d="M 102.71918,66.812501 V 94.593753"
       id="path2584-0-0-8-1"
       inkscape:connector-curvature="0"
       inkscape:export-xdpi="96"
       inkscape:export-ydpi="96" />
    <ellipse
       style="fill:none;fill-opacity:1;stroke:#000000;stroke-width:0.10596676;stroke-miterlimit:4;stroke-dasharray:none;stroke-dashoffset:0;stroke-opacity:1"
       id="path2561-1-6-5-5-5-4"
       cx="96.359764"
       cy="66.804054"
       rx="6.3790116"
       ry="1.9875413"
       inkscape:export-xdpi="96"
       inkscape:export-ydpi="96" />
    <ellipse
       style="fill:none;fill-opacity:1;stroke:#000000;stroke-width:0.10596676;stroke-miterlimit:4;stroke-dasharray:none;stroke-dashoffset:0;stroke-opacity:1"
       id="path2561-1-5-3-6-8"
       cx="57.093342"
       cy="94.695549"
       rx="6.3790116"
       ry="1.9875413"
       inkscape:export-xdpi="96"
       inkscape:export-ydpi="96" />
    <path
       style="fill:none;stroke:#000000;stroke-width:0.12153744px;stroke-linecap:butt;stroke-linejoin:miter;stroke-opacity:1"
       d="M 50.739148,66.812499 V 94.593753"
       id="path2582-4-8-90-6"
       inkscape:connector-curvature="0"
       inkscape:export-xdpi="96"
       inkscape:export-ydpi="96" />
    <path
       style="fill:none;stroke:#000000;stroke-width:0.12153744px;stroke-linecap:butt;stroke-linejoin:miter;stroke-opacity:1"
       d="M 63.5,66.8125 V 94.593753"
       id="path2584-0-0-2-2"
       inkscape:connector-curvature="0"
       inkscape:export-xdpi="96"
       inkscape:export-ydpi="96" />
    <ellipse
       style="fill:none;fill-opacity:1;stroke:#000000;stroke-width:0.10596676;stroke-miterlimit:4;stroke-dasharray:none;stroke-dashoffset:0;stroke-opacity:1"
       id="path2561-1-6-5-5-3-9"
       cx="57.140587"
       cy="66.804054"
       rx="6.3790116"
       ry="1.9875413"
       inkscape:export-xdpi="96"
       inkscape:export-ydpi="96" />
    <path
       style="fill:none;stroke:#000000;stroke-width:0.26458332px;stroke-linecap:butt;stroke-linejoin:miter;stroke-opacity:1"
       d="M 44.979166,102.53125 H 71.437499"
       id="path2803"
       inkscape:connector-curvature="0"
       inkscape:export-xdpi="96"
       inkscape:export-ydpi="96" />
    <path
       style="fill:none;stroke:#000000;stroke-width:0.26458332px;stroke-linecap:butt;stroke-linejoin:miter;stroke-opacity:1"
       d="M 44.979166,105.17708 H 71.437499"
       id="path2805"
       inkscape:connector-curvature="0"
       inkscape:export-xdpi="96"
       inkscape:export-ydpi="96" />
    <path
       style="fill:none;stroke:#000000;stroke-width:0.20409997px;stroke-linecap:butt;stroke-linejoin:miter;stroke-opacity:1"
       d="m 44.96181,102.51047 c 0,0 -0.775044,0 -0.775044,1.3437 0,1.34369 0.775044,1.34369 0.775044,1.34369"
       id="path2813"
       inkscape:connector-curvature="0"
       inkscape:export-xdpi="96"
       inkscape:export-ydpi="96" />
    <path
       style="fill:none;stroke:#000000;stroke-width:0.19836298px;stroke-linecap:butt;stroke-linejoin:miter;stroke-opacity:1"
       d="m 71.455941,102.5085 c 0,0 0.731013,0 0.731013,1.34567 0,1.34566 -0.731013,1.34566 -0.731013,1.34566"
       id="path2832"
       inkscape:connector-curvature="0"
       inkscape:export-xdpi="96"
       inkscape:export-ydpi="96" />
    <path
       style="fill:none;stroke:#000000;stroke-width:0.297452px;stroke-linecap:butt;stroke-linejoin:miter;stroke-opacity:1"
       d="m 60.854167,89.302083 17.197915,9.260414"
       id="path2834"
       inkscape:connector-curvature="0"
       inkscape:export-xdpi="96"
       inkscape:export-ydpi="96" />
    <path
       style="fill:none;stroke:#000000;stroke-width:0.31050205px;stroke-linecap:butt;stroke-linejoin:miter;stroke-opacity:1"
       d="m 60.325,91.41875 17.727083,9.78958"
       id="path2834-7"
       inkscape:connector-curvature="0"
       inkscape:export-xdpi="96"
       inkscape:export-ydpi="96" />
    <path
       style="fill:none;stroke:#000000;stroke-width:0.26458332px;stroke-linecap:butt;stroke-linejoin:miter;stroke-opacity:1"
       d="m 60.854166,89.302084 c 0,0 -1.058333,0 -1.058333,1.322916"
       id="path2859"
       inkscape:connector-curvature="0"
       inkscape:export-xdpi="96"
       inkscape:export-ydpi="96" />
    <path
       style="fill:none;stroke:#000000;stroke-width:0.32404733px;stroke-linecap:butt;stroke-linejoin:miter;stroke-opacity:1"
       d="m 59.795833,90.625 c 0,0 0,0.79375 0.79375,0.79375"
       id="path2865"
       inkscape:connector-curvature="0"
       inkscape:export-xdpi="96"
       inkscape:export-ydpi="96" />
    <path
       style="fill:none;stroke:#000000;stroke-width:0.26458332px;stroke-linecap:butt;stroke-linejoin:miter;stroke-opacity:1"
       d="M 63.499999,89.302083 H 89.958333"
       id="path2803-7"
       inkscape:connector-curvature="0"
       inkscape:export-xdpi="96"
       inkscape:export-ydpi="96" />
    <path
       style="fill:none;stroke:#000000;stroke-width:0.26458332px;stroke-linecap:butt;stroke-linejoin:miter;stroke-opacity:1"
       d="M 63.499999,91.947913 H 89.958333"
       id="path2805-6"
       inkscape:connector-curvature="0"
       inkscape:export-xdpi="96"
       inkscape:export-ydpi="96" />
    <path
       style="fill:none;stroke:#000000;stroke-width:0.20409997px;stroke-linecap:butt;stroke-linejoin:miter;stroke-opacity:1"
       d="m 63.482643,89.281303 c 0,0 -0.775044,0 -0.775044,1.3437 0,1.34369 0.775044,1.34369 0.775044,1.34369"
       id="path2813-0"
       inkscape:connector-curvature="0"
       inkscape:export-xdpi="96"
       inkscape:export-ydpi="96" />
    <path
       style="fill:none;stroke:#000000;stroke-width:0.19836299px;stroke-linecap:butt;stroke-linejoin:miter;stroke-opacity:1"
       d="m 89.976774,89.279333 c 0,0 0.731012,0 0.731012,1.34567 0,1.34566 -0.731012,1.34566 -0.731012,1.34566"
       id="path2832-5"
       inkscape:connector-curvature="0"
       inkscape:export-xdpi="96"
       inkscape:export-ydpi="96" />
    <path
       style="fill:none;stroke:#000000;stroke-width:0.2648195px;stroke-linecap:butt;stroke-linejoin:miter;stroke-opacity:1"
       d="M 83.34375,105.17708 97.895833,91.683333"
       id="path2901"
       inkscape:connector-curvature="0"
       inkscape:export-xdpi="96"
       inkscape:export-ydpi="96" />
    <path
       style="fill:none;stroke:#000000;stroke-width:0.26458335px;stroke-linecap:butt;stroke-linejoin:miter;stroke-opacity:1"
       d="M 82.020833,102.53125 96.8375,89.302083"
       id="path2901-8"
       inkscape:connector-curvature="0"
       inkscape:export-xdpi="96"
       inkscape:export-ydpi="96" />
    <path
       style="fill:none;stroke:#000000;stroke-width:0.26458332px;stroke-linecap:butt;stroke-linejoin:miter;stroke-opacity:1"
       d="m 96.837499,89.302084 c 2.38125,0.79375 0.79375,2.645833 0.79375,2.645833"
       id="path2920"
       inkscape:connector-curvature="0"
       inkscape:export-xdpi="96"
       inkscape:export-ydpi="96" />
    <ellipse
       style="fill:#0091ff;fill-opacity:1;stroke:#0091f7;stroke-width:0.10513838;stroke-miterlimit:4;stroke-dasharray:none;stroke-dashoffset:0;stroke-opacity:1"
       id="path2561-1-6-5-5-3-7"
       cx="38.602703"
       cy="86.789543"
       rx="6.2783604"
       ry="1.9879556"
       inkscape:export-xdpi="96"
       inkscape:export-ydpi="96" />
    <ellipse
       style="fill:#0091ff;fill-opacity:1;stroke:#0091f7;stroke-width:0.10513838;stroke-miterlimit:4;stroke-dasharray:none;stroke-dashoffset:0;stroke-opacity:1"
       id="path2561-1-6-5-5-3-7-0"
       cx="57.123539"
       cy="86.482658"
       rx="6.2783604"
       ry="1.9879557"
       inkscape:export-xdpi="96"
       inkscape:export-ydpi="96" />
    <ellipse
       style="fill:#0091ff;fill-opacity:1;stroke:#ffffff;stroke-width:0.10513838;stroke-miterlimit:4;stroke-dasharray:none;stroke-dashoffset:0;stroke-opacity:1"
       id="path2561-1-6-5-5-3-7-7"
       cx="77.815933"
       cy="97.145905"
       rx="6.2783604"
       ry="1.9879557"
       inkscape:export-xdpi="96"
       inkscape:export-ydpi="96" />
    <ellipse
       style="fill:#0091ff;fill-opacity:1;stroke:#0091f7;stroke-width:0.10513838;stroke-miterlimit:4;stroke-dasharray:none;stroke-dashoffset:0;stroke-opacity:1"
       id="path2561-1-6-5-5-3-7-4"
       cx="96.385818"
       cy="81.308891"
       rx="6.2783604"
       ry="1.9879557"
       inkscape:export-xdpi="96"
       inkscape:export-ydpi="96" />
    <path
       style="fill:#0091ff;fill-opacity:1;stroke:#0091ff;stroke-width:0.50587165;stroke-miterlimit:4;stroke-dasharray:none;stroke-dashoffset:0;stroke-opacity:1"
       d="m 122.08628,367.58652 v -37.93278 l 1.50735,1.26835 c 3.95849,3.33085 12.93617,5.09159 24.25154,4.75632 10.367,-0.30717 17.86504,-2.08164 20.67671,-4.89331 l 1.04157,-1.04157 v 28.39157 28.39157 l -1.36053,1.08485 c -1.1766,0.93819 -1.38924,1.53567 -1.57287,4.4196 -0.2028,3.18479 -0.14161,3.40548 1.36053,4.90762 1.46047,1.46047 1.57287,1.82521 1.57287,5.10395 v 3.53107 l -1.48186,-1.05517 c -8.20626,-5.84338 -35.23286,-5.98333 -44.10127,-0.22837 l -1.89404,1.22909 z"
       id="path3002"
       inkscape:connector-curvature="0"
       transform="scale(0.26458333)"
       inkscape:export-xdpi="96"
       inkscape:export-ydpi="96" />
    <path
       style="fill:#0091ff;fill-opacity:1;stroke:#0091ff;stroke-width:0.12646791;stroke-miterlimit:4;stroke-dasharray:none;stroke-dashoffset:0;stroke-opacity:1"
       d="m 170.29965,392.49549 v -4.41941 h 45.58313 45.58314 v 4.41941 4.41942 h -45.58314 -45.58313 z"
       id="path3006"
       inkscape:connector-curvature="0"
       transform="scale(0.26458333)"
       inkscape:export-xdpi="96"
       inkscape:export-ydpi="96" />
    <path
       style="fill:#0091ff;fill-opacity:1;stroke:#0091ff;stroke-width:0.25293583;stroke-miterlimit:4;stroke-dasharray:none;stroke-dashoffset:0;stroke-opacity:1"
       d="m 238.84999,355.34433 c -3.13132,-3.29389 -14.67754,-5.63118 -25.67491,-5.19736 -9.68029,0.38187 -17.4423,2.33565 -20.47643,5.15414 l -0.69448,0.64512 v -13.9312 -13.9312 l 1.01484,1.10097 c 3.27022,3.54777 13.38781,5.72557 24.97119,5.37503 5.12144,-0.15499 8.67436,-0.56753 12.29633,-1.42774 4.32084,-1.0262 7.86577,-2.79203 8.97132,-4.46886 0.47122,-0.71472 0.4727,-0.70319 0.47368,3.70246 l 0.001,4.41942 -0.94634,0.50507 c -0.61233,0.32682 -1.14296,0.89483 -1.50345,1.60936 -0.30641,0.60735 -0.61064,1.15781 -0.67607,1.22324 -0.0654,0.0654 -1.49662,-0.63037 -3.18041,-1.54622 -1.68379,-0.91585 -3.31148,-1.66269 -3.61707,-1.65964 -0.97598,0.01 -2.61278,0.92106 -3.32027,1.84863 -0.7792,1.02159 -1.34585,3.64338 -1.04581,4.83883 0.32065,1.27758 1.90014,2.42066 7.79467,5.64099 3.13732,1.71399 5.88847,3.25108 6.11368,3.41576 0.31869,0.23303 0.39248,0.65203 0.33282,1.88978 l -0.0767,1.59037 -0.75761,-0.79695 z"
       id="path3008"
       inkscape:connector-curvature="0"
       transform="scale(0.26458333)"
       inkscape:export-xdpi="96"
       inkscape:export-ydpi="96" />
    <path
       style="fill:#0091ff;fill-opacity:1;stroke:#0091ff;stroke-width:0.25293583;stroke-miterlimit:4;stroke-dasharray:none;stroke-dashoffset:0;stroke-opacity:1"
       d="m 211.01878,364.93757 c -11.0137,-0.74697 -19.00483,-3.74283 -19.01295,-7.12793 -0.005,-2.06792 4.15651,-4.44025 10.03472,-5.72052 4.53671,-0.98809 6.60509,-1.16188 13.82847,-1.16188 7.61949,0 10.26896,0.26596 15.229,1.5287 3.11991,0.79427 6.88293,2.61278 7.74478,3.74273 3.29949,4.32586 -6.38658,8.36132 -21.20601,8.83496 -1.94455,0.0621 -4.92265,0.0189 -6.61801,-0.0961 z"
       id="path3010"
       inkscape:connector-curvature="0"
       transform="scale(0.26458333)"
       inkscape:export-xdpi="96"
       inkscape:export-ydpi="96" />
    <path
       style="fill:#0091ff;fill-opacity:1;stroke:#0091ff;stroke-width:0.25293583;stroke-miterlimit:4;stroke-dasharray:none;stroke-dashoffset:0;stroke-opacity:1"
       d="m 140.89621,414.91759 c -10.67315,-0.68039 -18.85299,-3.75968 -18.84344,-7.09359 0.007,-2.59659 5.37738,-5.12424 13.68495,-6.44155 4.09165,-0.64881 16.01229,-0.64881 20.10394,0 4.08393,0.64758 7.42735,1.5723 9.76339,2.70034 3.57836,1.72795 4.54508,3.11943 3.5304,5.0816 -0.96818,1.87225 -6.14967,4.0366 -11.98155,5.0048 -2.84492,0.47231 -10.32836,1.07725 -12.24809,0.9901 -0.41669,-0.0189 -2.22101,-0.12768 -4.0096,-0.2417 z"
       id="path3012"
       inkscape:connector-curvature="0"
       transform="scale(0.26458333)"
       inkscape:export-xdpi="96"
       inkscape:export-ydpi="96" />
    <path
       style="fill:#0091ff;fill-opacity:1;stroke:#0091ff;stroke-width:0.25293583;stroke-miterlimit:4;stroke-dasharray:none;stroke-dashoffset:0;stroke-opacity:1"
       d="m 270.29099,402.01288 v -3.89373 l 0.87435,-0.41694 c 1.20227,-0.57333 1.91211,-2.05249 2.08556,-4.34587 0.23318,-3.08311 -0.71945,-5.57809 -2.36931,-6.20536 l -0.5906,-0.22455 v -8.59903 -8.59904 l 0.69448,0.3605 c 0.38196,0.19827 5.86341,3.21724 12.18099,6.70882 10.50731,5.80714 11.51404,6.31066 11.80956,5.90652 0.17768,-0.24299 0.28766,-0.548 0.24439,-0.67779 -0.0433,-0.1298 -3.27835,-2.00527 -7.18908,-4.16771 -3.91072,-2.16245 -7.0717,-3.97044 -7.02438,-4.01775 0.0473,-0.0473 1.09326,0.0911 2.32432,0.30752 6.24085,1.09734 15.38702,1.04883 22.21101,-0.11778 5.33243,-0.91163 10.57231,-3.05109 11.81386,-4.82365 0.38632,-0.55155 0.41202,-0.24068 0.41202,4.98492 v 5.57316 l -4.04061,3.58982 c -2.22234,1.9744 -4.04061,3.68261 -4.04061,3.79602 0,0.11341 0.16702,0.34481 0.37115,0.51423 0.30816,0.25575 0.98327,-0.23703 3.97748,-2.90324 l 3.60632,-3.21128 0.0707,6.2803 0.0707,6.2803 -1.6744,1.51629 c -1.63516,1.48075 -1.66293,1.52667 -1.18498,1.95921 0.4682,0.42371 0.51037,0.41975 0.97236,-0.0915 0.26561,-0.29391 0.79545,-0.75714 1.17741,-1.02939 l 0.69448,-0.49502 v 4.96785 4.96785 l -0.94193,-0.82703 c -3.011,-2.64369 -10.96757,-4.58174 -20.27127,-4.93766 -10.72092,-0.41013 -21.66085,1.7231 -25.32204,4.93766 l -0.94193,0.82703 z"
       id="path3014"
       inkscape:connector-curvature="0"
       transform="scale(0.26458333)"
       inkscape:export-xdpi="96"
       inkscape:export-ydpi="96" />
    <path
       style="fill:#0091ff;fill-opacity:1;stroke:#0091ff;stroke-width:0.25293583;stroke-miterlimit:4;stroke-dasharray:none;stroke-dashoffset:0;stroke-opacity:1"
       d="m 289.13609,414.92878 c -8.79152,-0.59069 -16.69796,-3.00185 -18.40965,-5.61423 -2.07871,-3.17251 3.2136,-6.34047 13.25117,-7.9321 4.09165,-0.64881 16.01228,-0.64881 20.10393,0 6.31417,1.00122 10.95843,2.71621 12.7621,4.71265 1.05295,1.16549 1.17148,2.00276 0.45084,3.18451 -2.29511,3.76367 -15.82422,6.4779 -28.15839,5.64917 z"
       id="path3016"
       inkscape:connector-curvature="0"
       transform="scale(0.26458333)"
       inkscape:export-xdpi="96"
       inkscape:export-ydpi="96" />
    <path
       style="fill:#0091ff;fill-opacity:1;stroke:#0091ff;stroke-width:0.25293583;stroke-miterlimit:4;stroke-dasharray:none;stroke-dashoffset:0;stroke-opacity:1"
       d="m 254.69676,359.45788 -14.45781,-7.9941 v -1.72036 -1.72036 l 3.97748,0.0163 3.97747,0.0163 10.6066,5.73338 10.60661,5.73339 0.0695,3.97299 c 0.0383,2.18515 -0.0186,3.96929 -0.12627,3.96475 -0.10769,-0.005 -6.70183,-3.60561 -14.65362,-8.00236 z"
       id="path3018"
       inkscape:connector-curvature="0"
       transform="scale(0.26458333)"
       inkscape:export-xdpi="96"
       inkscape:export-ydpi="96" />
    <path
       style="fill:#0091ff;fill-opacity:1;stroke:#0091ff;stroke-width:0.25293583;stroke-miterlimit:4;stroke-dasharray:none;stroke-dashoffset:0;stroke-opacity:1"
       d="m 234.2477,348.19575 c -2.80905,-1.55339 -5.11031,-2.95219 -5.1139,-3.10845 -0.004,-0.15626 -0.3423,-0.35126 -0.75268,-0.43334 -0.8969,-0.17938 -1.44746,-0.94907 -1.65449,-2.31301 -0.20777,-1.36882 0.67249,-3.10139 1.91325,-3.76572 l 0.90157,-0.48272 3.41966,1.80679 3.41966,1.80679 0.17141,1.67309 c 0.0943,0.9202 0.39099,2.1035 0.65936,2.62954 0.51582,1.01108 1.60037,2.01434 2.17759,2.01434 0.253,0 0.34475,0.40324 0.34475,1.51522 0,0.83338 -0.0852,1.50772 -0.18941,1.49853 -0.10417,-0.009 -2.48772,-1.28767 -5.29677,-2.84106 z"
       id="path3020"
       inkscape:connector-curvature="0"
       transform="scale(0.26458333)"
       inkscape:export-xdpi="96"
       inkscape:export-ydpi="96" />
    <path
       style="fill:#0091ff;fill-opacity:1;stroke:#fffff7;stroke-width:0.12646791;stroke-miterlimit:4;stroke-dasharray:none;stroke-dashoffset:0;stroke-opacity:1"
       d="m 240.33504,345.40695 v -1.58093 l 0.53665,0.27249 c 0.74387,0.3777 5.19663,2.78247 5.26121,2.84138 0.0289,0.0264 -1.26374,0.048 -2.87262,0.048 h -2.92524 z"
       id="path3022"
       inkscape:connector-curvature="0"
       transform="scale(0.26458333)"
       inkscape:export-xdpi="96"
       inkscape:export-ydpi="96" />
    <path
       style="fill:#0091ff;fill-opacity:1;stroke:#fffff7;stroke-width:0.12646791;stroke-miterlimit:4;stroke-dasharray:none;stroke-dashoffset:0;stroke-opacity:1"
       d="m 239.11855,346.87189 c -0.57331,-0.34959 -1.04685,-1.0311 -1.31493,-1.89245 -0.25513,-0.81972 -0.46854,-2.66351 -0.30829,-2.66351 0.0546,0 0.57385,0.25867 1.15384,0.57482 l 1.05453,0.57482 v 1.82429 c 0,1.00336 -0.0426,1.82408 -0.0947,1.82382 -0.0521,-2.7e-4 -0.27279,-0.10906 -0.49045,-0.24179 z"
       id="path3024"
       inkscape:connector-curvature="0"
       transform="scale(0.26458333)"
       inkscape:export-xdpi="96"
       inkscape:export-ydpi="96" />
    <path
       style="fill:#0091ff;fill-opacity:1;stroke:#0091ff;stroke-width:0.12646791;stroke-miterlimit:4;stroke-dasharray:none;stroke-dashoffset:0;stroke-opacity:1"
       d="m 238.6007,341.46409 c -1.1875,-0.65219 -1.17546,-0.60758 -0.54061,-2.00292 0.33183,-0.72933 0.86334,-1.28186 1.42264,-1.47889 0.20465,-0.0721 0.22097,0.0757 0.22097,2.00163 0,1.14371 -0.0142,2.07313 -0.0316,2.06538 -0.0174,-0.008 -0.4995,-0.2711 -1.07143,-0.5852 z"
       id="path3026"
       inkscape:connector-curvature="0"
       transform="scale(0.26458333)"
       inkscape:export-xdpi="96"
       inkscape:export-ydpi="96" />
    <path
       style="fill:#0091ff;fill-opacity:1;stroke:#0091ff;stroke-width:0.12646791;stroke-miterlimit:4;stroke-dasharray:none;stroke-dashoffset:0;stroke-opacity:1"
       d="m 244.59677,344.67958 -4.26144,-2.30052 -1.4e-4,-2.17814 -1.5e-4,-2.17814 h 14.71035 14.71035 v 4.48255 4.48255 l -10.44877,-0.004 -10.44876,-0.004 z"
       id="path3028"
       inkscape:connector-curvature="0"
       transform="scale(0.26458333)"
       inkscape:export-xdpi="96"
       inkscape:export-ydpi="96" />
    <path
       style="fill:#0091ff;fill-opacity:1;stroke:#0091ff;stroke-width:0.35770527;stroke-miterlimit:4;stroke-dasharray:none;stroke-dashoffset:0;stroke-opacity:1"
       d="m 318.63563,386.92559 v -6.21194 l 10.56846,-9.45462 c 5.81265,-5.20004 10.84867,-9.65753 11.19115,-9.90554 0.52393,-0.3794 0.96587,-0.27391 2.78668,0.66516 1.19021,0.61383 3.15959,1.38859 4.37641,1.72167 l 2.2124,0.60561 -14.04969,13.03 c -7.72733,7.1665 -14.73273,13.64461 -15.56755,14.3958 l -1.51786,1.36579 z"
       id="path3030"
       inkscape:connector-curvature="0"
       transform="scale(0.26458333)"
       inkscape:export-xdpi="96"
       inkscape:export-ydpi="96" />
    <path
       style="fill:#0091ff;fill-opacity:1;stroke:#0091ff;stroke-width:0.35770527;stroke-miterlimit:4;stroke-dasharray:none;stroke-dashoffset:0;stroke-opacity:1"
       d="m 347.38563,362.92006 c -2.75341,-0.89946 -5.53571,-2.2304 -5.53571,-2.64807 0,-0.44379 8.5092,-7.92589 9.3984,-8.26396 1.42487,-0.54174 7.45207,-1.15161 10.20184,-1.03229 l 2.63595,0.11438 -6.84059,6.33929 c -3.76233,3.4866 -6.95743,6.33209 -7.10024,6.3233 -0.14281,-0.009 -1.38465,-0.38348 -2.75965,-0.83265 z"
       id="path3032"
       inkscape:connector-curvature="0"
       transform="scale(0.26458333)"
       inkscape:export-xdpi="96"
       inkscape:export-ydpi="96" />
    <path
       style="fill:#0091ff;fill-opacity:1;stroke:#0091ff;stroke-width:0.35770527;stroke-miterlimit:4;stroke-dasharray:none;stroke-dashoffset:0;stroke-opacity:1"
       d="m 353.09992,349.9834 c 6.51031,-5.91142 12.81216,-11.41316 13.16673,-11.49502 0.71117,-0.1642 2.80891,1.43486 3.55242,2.70791 1.08127,1.8514 0.32921,3.94624 -2.41491,6.72668 l -2.16138,2.18999 -5.35715,0.22277 c -2.94643,0.12252 -5.91964,0.31226 -6.60714,0.42165 l -1.25,0.19888 z"
       id="path3034"
       inkscape:connector-curvature="0"
       transform="scale(0.26458333)"
       inkscape:export-xdpi="96"
       inkscape:export-ydpi="96" />
    <path
       style="fill:#0091ff;fill-opacity:1;stroke:#0091ff;stroke-width:0.35770527;stroke-miterlimit:4;stroke-dasharray:none;stroke-dashoffset:0;stroke-opacity:1"
       d="m 386.24389,354.66965 c -2.59207,-2.05239 -9.0586,-3.82162 -15.83873,-4.33345 l -3.34824,-0.25276 1.62537,-1.46095 c 2.80871,-2.52457 3.63896,-6.32593 1.9307,-8.83985 -0.82867,-1.2195 -3.36952,-2.79966 -4.50176,-2.79966 -0.28224,0 -4.16744,3.25607 -8.63377,7.23573 -8.09453,7.21248 -8.13049,7.23908 -11.19748,8.2804 -1.69228,0.57457 -3.70277,1.49808 -4.46775,2.05223 l -1.39088,1.00754 v -3.61155 c 0,-3.47147 0.0363,-3.64011 0.93613,-4.34792 1.27603,-1.00372 1.92101,-2.70958 1.92101,-5.08072 0,-2.37113 -0.64498,-4.077 -1.92101,-5.08072 l -0.93613,-0.73636 v -13.98365 -13.98365 l 1.29653,1.25918 c 3.41679,3.31834 14.71065,5.57051 25.48918,5.08293 9.45702,-0.4278 16.70635,-2.32459 19.73214,-5.16293 l 0.98215,-0.92129 v 23.45967 c 0,12.90282 -0.0402,23.44728 -0.0893,23.43213 -0.0491,-0.0151 -0.76378,-0.56161 -1.58817,-1.21435 z"
       id="path3036"
       inkscape:connector-curvature="0"
       transform="scale(0.26458333)"
       inkscape:export-xdpi="96"
       inkscape:export-ydpi="96" />
    <path
       style="fill:#0091ff;fill-opacity:1;stroke:#0091ff;stroke-width:0.35770527;stroke-miterlimit:4;stroke-dasharray:none;stroke-dashoffset:0;stroke-opacity:1"
       d="m 358.40016,364.81777 c -2.192,-0.16367 -4.48887,-0.42803 -5.10413,-0.58746 l -1.11867,-0.28988 7.06738,-6.51444 7.06738,-6.51444 1.96533,0.002 c 1.08093,0.001 3.57247,0.24392 5.53675,0.53948 10.6773,1.60659 16.026,5.00844 12.99108,8.26251 -3.43209,3.67991 -16.35801,6.00166 -28.40512,5.10212 z"
       id="path3038"
       inkscape:connector-curvature="0"
       transform="scale(0.26458333)"
       inkscape:export-xdpi="96"
       inkscape:export-ydpi="96" />
    <path
       style="fill:#0091ff;fill-opacity:1;stroke:#0091ff;stroke-width:0.12646791;stroke-miterlimit:4;stroke-dasharray:none;stroke-dashoffset:0;stroke-opacity:1"
       d="m 340.45801,358.98735 c -0.15774,-0.24105 -0.23036,-0.58268 -0.22752,-1.0703 0.008,-1.37927 1.16455,-2.61394 3.54208,-3.78145 1.2014,-0.58996 4.31616,-1.70805 4.43294,-1.59127 0.0444,0.0444 -1.47035,1.41515 -7.24242,6.55373 -0.27199,0.24214 -0.27455,0.24158 -0.50508,-0.11071 z"
       id="path3040"
       inkscape:connector-curvature="0"
       transform="scale(0.26458333)"
       inkscape:export-xdpi="96"
       inkscape:export-ydpi="96" />
    <path
       style="fill:#0091ff;fill-opacity:1;stroke:#0091ff;stroke-width:0.12646791;stroke-miterlimit:4;stroke-dasharray:none;stroke-dashoffset:0;stroke-opacity:1"
       d="m 318.57117,342.52378 v -4.41942 h 10.54347 10.54346 v 4.41942 4.41942 h -10.54346 -10.54347 z"
       id="path3042"
       inkscape:connector-curvature="0"
       transform="scale(0.26458333)"
       inkscape:export-xdpi="96"
       inkscape:export-ydpi="96" />
    <path
       style="fill:#0091ff;fill-opacity:1;stroke:#0091ff;stroke-width:0.12646791;stroke-miterlimit:4;stroke-dasharray:none;stroke-dashoffset:0;stroke-opacity:1"
       d="m 340.28945,342.52378 c 0,-5.14238 -0.0287,-5.01957 0.9371,-4.00437 0.62551,0.65748 0.90846,1.39956 1.09841,2.88071 0.28313,2.2077 -0.29361,4.56333 -1.30639,5.33581 -0.24051,0.18345 -0.50295,0.33354 -0.5832,0.33354 -0.10768,0 -0.14592,-1.19134 -0.14592,-4.54569 z"
       id="path3044"
       inkscape:connector-curvature="0"
       transform="scale(0.26458333)"
       inkscape:export-xdpi="96"
       inkscape:export-ydpi="96" />
    <path
       style="fill:#0091ff;fill-opacity:1;stroke:#0091ff;stroke-width:0.12646791;stroke-miterlimit:4;stroke-dasharray:none;stroke-dashoffset:0;stroke-opacity:1"
       d="m 261.46084,392.52018 v -4.41942 h 4.10374 4.10375 v 4.41942 4.41942 h -4.10375 -4.10374 z"
       id="path3046"
       inkscape:connector-curvature="0"
       transform="scale(0.26458333)"
       inkscape:export-xdpi="96"
       inkscape:export-ydpi="96" />
    <path
       style="fill:#0091ff;fill-opacity:1;stroke:#0091ff;stroke-width:0.12646791;stroke-miterlimit:4;stroke-dasharray:none;stroke-dashoffset:0;stroke-opacity:1"
       d="m 270.29967,392.52018 c 0,-3.35434 0.0383,-4.54569 0.14592,-4.54569 0.30678,0 1.00657,0.67172 1.29073,1.23896 0.44719,0.89266 0.62663,1.83957 0.62663,3.30673 0,1.46717 -0.17944,2.41408 -0.62663,3.30673 -0.28416,0.56724 -0.98395,1.23896 -1.29073,1.23896 -0.10767,0 -0.14592,-1.19134 -0.14592,-4.54569 z"
       id="path3048"
       inkscape:connector-curvature="0"
       transform="scale(0.26458333)"
       inkscape:export-xdpi="96"
       inkscape:export-ydpi="96" />
    <path
       style="fill:#0091ff;fill-opacity:1;stroke:#fffff7;stroke-width:0.08942632;stroke-miterlimit:4;stroke-dasharray:none;stroke-dashoffset:0;stroke-opacity:1"
       d="m 169.35029,397.02164 c -0.76796,-0.30671 -1.48527,-1.38532 -1.74547,-2.62466 -0.17238,-0.82105 -0.17346,-2.92563 -0.002,-3.73525 0.29593,-1.39672 1.02743,-2.43326 1.89885,-2.69066 l 0.20089,-0.0593 v 4.60423 c 0,2.53233 -0.0301,4.60169 -0.067,4.59857 -0.0368,-0.003 -0.16526,-0.0449 -0.28539,-0.0929 z"
       id="path3050"
       inkscape:connector-curvature="0"
       transform="scale(0.26458333)"
       inkscape:export-xdpi="96"
       inkscape:export-ydpi="96" />
    <rect
       style="fill:#0091ff;fill-opacity:1;stroke:none;stroke-width:1.96034288;stroke-miterlimit:4;stroke-dasharray:none;stroke-dashoffset:0;stroke-opacity:1"
       id="rect3080"
       width="12.668996"
       height="2.1166661"
       x="32.259529"
       y="105.70625"
       inkscape:export-xdpi="96"
       inkscape:export-ydpi="96" />
    <rect
       style="fill:#0091ff;fill-opacity:1;stroke:#0091ff;stroke-width:0.26499999;stroke-miterlimit:4;stroke-dasharray:none;stroke-dashoffset:0;stroke-opacity:1"
       id="rect3082"
       width="0.26458332"
       height="2.1166666"
       x="44.979168"
       y="102.79583"
       inkscape:export-xdpi="96"
       inkscape:export-ydpi="96" />
    <rect
       style="fill:#0091ff;fill-opacity:1;stroke:#0091ff;stroke-width:0.26499999;stroke-miterlimit:4;stroke-dasharray:none;stroke-dashoffset:0;stroke-opacity:1"
       id="rect3084"
       width="0.26458257"
       height="0.26458386"
       x="44.450001"
       y="102.00208"
       inkscape:export-xdpi="96"
       inkscape:export-ydpi="96" />
    <rect
       style="fill:#0091ff;fill-opacity:1;stroke:#0091ff;stroke-width:0.26499999;stroke-miterlimit:4;stroke-dasharray:none;stroke-dashoffset:0;stroke-opacity:1"
       id="rect3086"
       width="1.3229166"
       height="1.8520833"
       x="68.527084"
       y="103.06042"
       inkscape:export-xdpi="96"
       inkscape:export-ydpi="96" />
    <rect
       style="fill:#0091ff;fill-opacity:1;stroke:#0091ff;stroke-width:0.26499999;stroke-miterlimit:4;stroke-dasharray:none;stroke-dashoffset:0;stroke-opacity:1"
       id="rect3088"
       width="0.26458332"
       height="2.1166666"
       x="71.172913"
       y="102.79583"
       inkscape:export-xdpi="96"
       inkscape:export-ydpi="96" />
    <rect
       style="fill:#0091ff;fill-opacity:1;stroke:#0091ff;stroke-width:0.25599149;stroke-miterlimit:4;stroke-dasharray:none;stroke-dashoffset:0;stroke-opacity:1"
       id="rect3090"
       width="3.4263883"
       height="1.830286"
       x="116.90448"
       y="54.346142"
       transform="matrix(0.88449841,0.4665432,-0.75004019,0.66139225,0,0)"
       inkscape:export-xdpi="96"
       inkscape:export-ydpi="96" />
    <rect
       style="fill:#0091ff;fill-opacity:1;stroke:#0091ff;stroke-width:0.26499999;stroke-miterlimit:4;stroke-dasharray:none;stroke-dashoffset:0;stroke-opacity:1"
       id="rect3094"
       width="7.3421874"
       height="5.7877603"
       x="73.091148"
       y="97.471092"
       inkscape:export-xdpi="96"
       inkscape:export-ydpi="96" />
    <rect
       style="fill:#0091ff;fill-opacity:1;stroke:#0091ff;stroke-width:0.26499999;stroke-miterlimit:4;stroke-dasharray:none;stroke-dashoffset:0;stroke-opacity:1"
       id="rect3096"
       width="0.89297146"
       height="2.0835958"
       x="72.198174"
       y="97.471092"
       inkscape:export-xdpi="96"
       inkscape:export-ydpi="96" />
    <rect
       style="fill:#0091ff;fill-opacity:1;stroke:#0091ff;stroke-width:0.26499999;stroke-miterlimit:4;stroke-dasharray:none;stroke-dashoffset:0;stroke-opacity:1"
       id="rect3098"
       width="0.28111979"
       height="1.8686198"
       x="72.115494"
       y="96.677345"
       inkscape:export-xdpi="96"
       inkscape:export-ydpi="96" />
    <rect
       style="fill:#0091ff;fill-opacity:1;stroke:#0091ff;stroke-width:0.26499999;stroke-miterlimit:4;stroke-dasharray:none;stroke-dashoffset:0;stroke-opacity:1"
       id="rect3100"
       width="0.47955644"
       height="1.074873"
       x="71.635933"
       y="97.471092"
       inkscape:export-xdpi="96"
       inkscape:export-ydpi="96" />
    <rect
       style="fill:#0091ff;fill-opacity:1;stroke:#0091ff;stroke-width:0.26499999;stroke-miterlimit:4;stroke-dasharray:none;stroke-dashoffset:0;stroke-opacity:1"
       id="rect3102"
       width="2.3812506"
       height="8.1028643"
       x="81.657036"
       y="97.471092"
       inkscape:export-xdpi="96"
       inkscape:export-ydpi="96" />
    <rect
       style="fill:#0091ff;fill-opacity:1;stroke:#0091ff;stroke-width:0.26499999;stroke-miterlimit:4;stroke-dasharray:none;stroke-dashoffset:0;stroke-opacity:1"
       id="rect3104"
       width="1.2071614"
       height="0.33072916"
       x="90.156769"
       y="95.817444"
       ry="0"
       inkscape:export-xdpi="96"
       inkscape:export-ydpi="96" />
    <rect
       style="fill:#0091ff;fill-opacity:1;stroke:#0091ff;stroke-width:0.26499999;stroke-miterlimit:4;stroke-dasharray:none;stroke-dashoffset:0;stroke-opacity:1"
       id="rect3106"
       width="0.86537969"
       height="1.0288955"
       x="132.62033"
       y="-4.3683443"
       transform="rotate(47.804504)"
       inkscape:export-xdpi="96"
       inkscape:export-ydpi="96" />
    <rect
       style="fill:#0091ff;fill-opacity:1;stroke:#0091ff;stroke-width:0.26499999;stroke-miterlimit:4;stroke-dasharray:none;stroke-dashoffset:0;stroke-opacity:1"
       id="rect3106-5"
       width="0.86537969"
       height="1.0288955"
       x="131.38431"
       y="-3.5096672"
       transform="rotate(47.804504)"
       inkscape:export-xdpi="96"
       inkscape:export-ydpi="96" />
    <rect
       style="fill:#0091ff;fill-opacity:1;stroke:#0091ff;stroke-width:0.26499999;stroke-miterlimit:4;stroke-dasharray:none;stroke-dashoffset:0;stroke-opacity:1"
       id="rect3123"
       width="0.57050782"
       height="2.1001301"
       x="89.470505"
       y="89.566666"
       inkscape:export-xdpi="96"
       inkscape:export-ydpi="96" />
    <rect
       style="fill:#0091ff;fill-opacity:1;stroke:#0091ff;stroke-width:0.49202856;stroke-miterlimit:4;stroke-dasharray:none;stroke-dashoffset:0;stroke-opacity:1"
       id="rect3140"
       width="2.6714184"
       height="0.98983967"
       x="-142.91588"
       y="200.74728"
       transform="matrix(0.7440204,-0.6681569,0.99995651,-0.00932593,0,0)"
       inkscape:export-xdpi="96"
       inkscape:export-ydpi="96" />
    <rect
       style="fill:#0091ff;fill-opacity:1;stroke:#0091ff;stroke-width:0.49202856;stroke-miterlimit:4;stroke-dasharray:none;stroke-dashoffset:0;stroke-opacity:1"
       id="rect3140-2"
       width="2.6714184"
       height="0.98983967"
       x="-142.38658"
       y="198.73282"
       transform="matrix(0.7440204,-0.6681569,0.99995651,-0.00932593,0,0)"
       inkscape:transform-center-x="-1.1740885"
       inkscape:export-xdpi="96"
       inkscape:export-ydpi="96" />
    <rect
       style="fill:#0091ff;fill-opacity:1;stroke:#0091ff;stroke-width:0.49202856;stroke-miterlimit:4;stroke-dasharray:none;stroke-dashoffset:0;stroke-opacity:1"
       id="rect3140-2-8"
       width="2.6714184"
       height="0.98983967"
       x="-142.93326"
       y="199.77626"
       transform="matrix(0.7440204,-0.6681569,0.99995651,-0.00932593,0,0)"
       inkscape:transform-center-x="-1.1740885"
       inkscape:export-xdpi="96"
       inkscape:export-ydpi="96" />
    <rect
       style="fill:#0091ff;fill-opacity:1;stroke:#0091ff;stroke-width:0.2564286;stroke-miterlimit:4;stroke-dasharray:none;stroke-dashoffset:0;stroke-opacity:1"
       id="rect3174"
       width="12.383907"
       height="1.9888747"
       x="71.622353"
       y="105.69545"
       inkscape:export-xdpi="96"
       inkscape:export-ydpi="96" />
    <rect
       style="fill:#0091ff;fill-opacity:1;stroke:#0091ff;stroke-width:0.63920629;stroke-miterlimit:4;stroke-dasharray:none;stroke-dashoffset:0;stroke-opacity:1"
       id="rect3178"
       width="9.2200298"
       height="1.6134466"
       x="51.121815"
       y="92.83374"
       inkscape:export-xdpi="96"
       inkscape:export-ydpi="96" />
    <rect
       style="fill:#0091ff;fill-opacity:1;stroke:#0091ff;stroke-width:0.26666546;stroke-miterlimit:4;stroke-dasharray:none;stroke-dashoffset:0;stroke-opacity:1"
       id="rect3178-7"
       width="2.7053699"
       height="0.95699978"
       x="60.591206"
       y="93.577065"
       inkscape:export-xdpi="96"
       inkscape:export-ydpi="96" />
    <rect
       style="fill:#0091ff;fill-opacity:1;stroke:#0091ff;stroke-width:0.26666546;stroke-miterlimit:4;stroke-dasharray:none;stroke-dashoffset:0;stroke-opacity:1"
       id="rect3178-7-9"
       width="2.7053699"
       height="0.95699978"
       x="59.310814"
       y="93.121033"
       inkscape:export-xdpi="96"
       inkscape:export-ydpi="96" />
    <rect
       style="fill:#0091ff;fill-opacity:1;stroke:#0091ff;stroke-width:0.26499999;stroke-miterlimit:4;stroke-dasharray:none;stroke-dashoffset:0;stroke-opacity:1"
       id="rect3094-2"
       width="7.3421874"
       height="5.7877603"
       x="75.571617"
       y="97.322266"
       inkscape:export-xdpi="96"
       inkscape:export-ydpi="96" />
    <rect
       style="fill:#0091ff;fill-opacity:1;stroke:#0091ff;stroke-width:0.32957494;stroke-miterlimit:4;stroke-dasharray:none;stroke-dashoffset:0;stroke-opacity:1"
       id="rect3228"
       width="0.28329304"
       height="0.72178209"
       x="63.510883"
       y="89.577263"
       inkscape:export-xdpi="96"
       inkscape:export-ydpi="96" />
    <rect
       style="fill:#ffffff;fill-opacity:1;stroke:#0091ff;stroke-width:0.26499999;stroke-miterlimit:4;stroke-dasharray:none;stroke-dashoffset:0;stroke-opacity:1"
       id="rect3230"
       width="0.347868"
       height="0.18708867"
       x="50.962292"
       y="-98.024422"
       transform="rotate(117.25101)"
       inkscape:export-xdpi="96"
       inkscape:export-ydpi="96" />
    <path
       style="fill:#ffffff;fill-opacity:1;stroke:#0091ff;stroke-width:0.17705508;stroke-miterlimit:4;stroke-dasharray:none;stroke-dashoffset:0;stroke-opacity:1"
       d=""
       id="path3232"
       inkscape:connector-curvature="0"
       transform="scale(0.26458333)" />
    <path
       style="fill:#ffffff;fill-opacity:1;stroke:#0091ff;stroke-width:0.17705508;stroke-miterlimit:4;stroke-dasharray:none;stroke-dashoffset:0;stroke-opacity:1"
       d=""
       id="path3234"
       inkscape:connector-curvature="0"
       transform="scale(0.26458333)" />
    <path
       style="fill:#ffffff;fill-opacity:1;stroke:#0091ff;stroke-width:0.12519684;stroke-miterlimit:4;stroke-dasharray:none;stroke-dashoffset:0;stroke-opacity:1"
       d="m 270.29701,342.56691 v -4.4375 h 23.8125 23.8125 v 4.4375 4.4375 h -23.8125 -23.8125 z"
       id="path3240"
       inkscape:connector-curvature="0"
       transform="scale(0.26458333)"
       inkscape:export-xdpi="96"
       inkscape:export-ydpi="96" />
    <path
       style="fill:none;stroke:#ffffff;stroke-width:0.26458332px;stroke-linecap:butt;stroke-linejoin:miter;stroke-opacity:1"
       d="m 72.016275,94.651628 c 0.01132,0.05058 -0.04187,0.08584 -0.04961,0.132291 -0.0013,0.0082 0.0013,0.01664 0,0.02479 -0.0013,0.0086 -0.0064,0.0163 -0.0083,0.02479 -0.0037,0.01635 -0.005,0.03317 -0.0083,0.04961 -0.0021,0.01114 -0.0067,0.02183 -0.0083,0.03307 -0.0011,0.0082 0,0.01654 0,0.02479 0,0.01103 0,0.02204 0,0.03307 0,0.0083 0.0013,0.01664 0,0.02479 -0.0013,0.0086 -0.0062,0.01635 -0.0083,0.02479 -0.0034,0.01363 -0.006,0.02748 -0.0083,0.04134 -5.29e-4,0.0027 7.94e-4,0.0056 0,0.0083 -0.0021,0.0084 -0.0066,0.01624 -0.0083,0.02479 -0.0026,0.01326 0.0026,0.02809 0,0.04134 -0.0013,0.006 -0.0068,0.01056 -0.0083,0.01654 -0.0033,0.01336 0.0024,0.02775 0,0.04134 -0.0013,0.0086 -0.0062,0.01635 -0.0083,0.02479 -7.94e-4,0.0027 0.0013,0.0058 0,0.0083 -0.0019,0.0035 -0.0075,0.0044 -0.0083,0.0083 -0.0021,0.0108 0,0.02204 0,0.03307 0,0.01654 0,0.03307 0,0.04961 0,0.0021 -0.0013,0.02413 0,0.02479 0.0049,0.0024 0.01103,0 0.01654,0 0.02543,0 0.05077,0.0035 0.07441,-0.0083 0.0099,-0.005 0.01487,-0.01984 0.02479,-0.02479 0.01016,-0.0051 0.02291,-0.0032 0.03307,-0.0083 0.007,-0.0035 0.01103,-0.01103 0.01654,-0.01654 0.0055,-0.0055 0.01167,-0.01045 0.01654,-0.01654 0.02125,-0.02657 0.02238,-0.04125 0.04134,-0.07441 0.0019,-0.0034 0.0055,-0.0055 0.0083,-0.0083 0.01103,-0.01929 0.02312,-0.038 0.03307,-0.05788 0.02146,-0.04293 -0.0075,-0.009 0.02479,-0.04134 0.0028,-0.0028 0.0055,-0.0055 0.0083,-0.0083 0,-0.0028 -0.0019,-0.0063 0,-0.0083 0.0019,-0.0019 0.0074,-0.0026 0.0083,0 0.0013,0.004 0,0.0719 0,0.07441 0,0.02756 0,0.05512 0,0.08268 0,0.01103 0.0019,0.0222 0,0.03307 -0.0021,0.01214 -0.01265,0.02138 -0.01654,0.03307 -0.0019,0.0057 0.0024,0.01992 0,0.02479 -0.0019,0.0035 -0.0065,0.0048 -0.0083,0.0083 -0.0013,0.0024 0,0.0055 0,0.0083 0,0.0028 0,0.0055 0,0.0083"
       id="path3244"
       inkscape:connector-curvature="0"
       inkscape:export-xdpi="96"
       inkscape:export-ydpi="96" />
    <path
       style="fill:none;stroke:#ffffff;stroke-width:0.26458332px;stroke-linecap:butt;stroke-linejoin:miter;stroke-opacity:1"
       d="m 72.31021,94.921515 c 0.01132,0.05058 -0.04187,0.08584 -0.04961,0.132291 -0.0013,0.0082 0.0013,0.01664 0,0.02479 -0.0013,0.0086 -0.0064,0.0163 -0.0083,0.02479 -0.0037,0.01635 -0.005,0.03317 -0.0083,0.04961 -0.0021,0.01114 -0.0067,0.02183 -0.0083,0.03307 -0.0011,0.0082 0,0.01654 0,0.02479 0,0.01103 0,0.02204 0,0.03307 0,0.0083 0.0013,0.01664 0,0.02479 -0.0013,0.0086 -0.0062,0.01635 -0.0083,0.02479 -0.0034,0.01363 -0.006,0.02748 -0.0083,0.04134 -5.29e-4,0.0027 7.94e-4,0.0056 0,0.0083 -0.0021,0.0084 -0.0066,0.01624 -0.0083,0.02479 -0.0026,0.01326 0.0026,0.02809 0,0.04134 -0.0013,0.006 -0.0068,0.01056 -0.0083,0.01654 -0.0033,0.01336 0.0024,0.02775 0,0.04134 -0.0013,0.0086 -0.0062,0.01635 -0.0083,0.02479 -7.94e-4,0.0027 0.0013,0.0058 0,0.0083 -0.0019,0.0035 -0.0075,0.0044 -0.0083,0.0083 -0.0021,0.0108 0,0.02204 0,0.03307 0,0.01654 0,0.03307 0,0.04961 0,0.0021 -0.0013,0.02413 0,0.02479 0.0049,0.0024 0.01103,0 0.01654,0 0.02543,0 0.05077,0.0035 0.07441,-0.0083 0.0099,-0.005 0.01487,-0.01984 0.02479,-0.02479 0.01016,-0.0051 0.02291,-0.0032 0.03307,-0.0083 0.007,-0.0035 0.01103,-0.01103 0.01654,-0.01654 0.0055,-0.0055 0.01167,-0.01045 0.01654,-0.01654 0.02125,-0.02657 0.02238,-0.04125 0.04134,-0.07441 0.0019,-0.0034 0.0055,-0.0055 0.0083,-0.0083 0.01103,-0.01929 0.02312,-0.038 0.03307,-0.05788 0.02146,-0.04293 -0.0075,-0.009 0.02479,-0.04134 0.0028,-0.0028 0.0055,-0.0055 0.0083,-0.0083 0,-0.0028 -0.0019,-0.0063 0,-0.0083 0.0019,-0.0019 0.0074,-0.0026 0.0083,0 0.0013,0.004 0,0.0719 0,0.07441 0,0.02756 0,0.05512 0,0.08268 0,0.01103 0.0019,0.0222 0,0.03307 -0.0021,0.01214 -0.01265,0.02138 -0.01654,0.03307 -0.0019,0.0057 0.0024,0.01992 0,0.02479 -0.0019,0.0035 -0.0065,0.0048 -0.0083,0.0083 -0.0013,0.0024 0,0.0055 0,0.0083 0,0.0028 0,0.0055 0,0.0083"
       id="path3244-3"
       inkscape:connector-curvature="0"
       inkscape:export-xdpi="96"
       inkscape:export-ydpi="96" />
    <path
       style="fill:none;stroke:#ffffff;stroke-width:0.26458332px;stroke-linecap:butt;stroke-linejoin:miter;stroke-opacity:1"
       d="m 72.880718,95.103416 c 0.01132,0.05058 -0.04187,0.08584 -0.04961,0.132291 -0.0013,0.0082 0.0013,0.01664 0,0.02479 -0.0013,0.0086 -0.0064,0.0163 -0.0083,0.02479 -0.0037,0.01635 -0.005,0.03317 -0.0083,0.04961 -0.0021,0.01114 -0.0067,0.02183 -0.0083,0.03307 -0.0011,0.0082 0,0.01654 0,0.02479 0,0.01103 0,0.02204 0,0.03307 0,0.0083 0.0013,0.01664 0,0.02479 -0.0013,0.0086 -0.0062,0.01635 -0.0083,0.02479 -0.0034,0.01363 -0.006,0.02748 -0.0083,0.04134 -5.29e-4,0.0027 7.94e-4,0.0056 0,0.0083 -0.0021,0.0084 -0.0066,0.01624 -0.0083,0.02479 -0.0026,0.01326 0.0026,0.02809 0,0.04134 -0.0013,0.006 -0.0068,0.01056 -0.0083,0.01654 -0.0033,0.01336 0.0024,0.02775 0,0.04134 -0.0013,0.0086 -0.0062,0.01635 -0.0083,0.02479 -7.94e-4,0.0027 0.0013,0.0058 0,0.0083 -0.0019,0.0035 -0.0075,0.0044 -0.0083,0.0083 -0.0021,0.0108 0,0.02204 0,0.03307 0,0.01654 0,0.03307 0,0.04961 0,0.0021 -0.0013,0.02413 0,0.02479 0.0049,0.0024 0.01103,0 0.01654,0 0.02543,0 0.05077,0.0035 0.07441,-0.0083 0.0099,-0.005 0.01487,-0.01984 0.02479,-0.02479 0.01016,-0.0051 0.02291,-0.0032 0.03307,-0.0083 0.007,-0.0035 0.01103,-0.01103 0.01654,-0.01654 0.0055,-0.0055 0.01167,-0.01045 0.01654,-0.01654 0.02125,-0.02657 0.02238,-0.04125 0.04134,-0.07441 0.0019,-0.0034 0.0055,-0.0055 0.0083,-0.0083 0.01103,-0.01929 0.02312,-0.038 0.03307,-0.05788 0.02146,-0.04293 -0.0075,-0.009 0.02479,-0.04134 0.0028,-0.0028 0.0055,-0.0055 0.0083,-0.0083 0,-0.0028 -0.0019,-0.0063 0,-0.0083 0.0019,-0.0019 0.0074,-0.0026 0.0083,0 0.0013,0.004 0,0.0719 0,0.07441 0,0.02756 0,0.05512 0,0.08268 0,0.01103 0.0019,0.0222 0,0.03307 -0.0021,0.01214 -0.01265,0.02138 -0.01654,0.03307 -0.0019,0.0057 0.0024,0.01992 0,0.02479 -0.0019,0.0035 -0.0065,0.0048 -0.0083,0.0083 -0.0013,0.0024 0,0.0055 0,0.0083 0,0.0028 0,0.0055 0,0.0083"
       id="path3244-2"
       inkscape:connector-curvature="0"
       inkscape:export-xdpi="96"
       inkscape:export-ydpi="96" />
    <path
       style="fill:none;stroke:#ffffff;stroke-width:0.26458332px;stroke-linecap:butt;stroke-linejoin:miter;stroke-opacity:1"
       d="m 72.35983,95.078615 c 0.01132,0.05058 -0.04187,0.08584 -0.04961,0.132291 -0.0013,0.0082 0.0013,0.01664 0,0.02479 -0.0013,0.0086 -0.0064,0.0163 -0.0083,0.02479 -0.0037,0.01635 -0.005,0.03317 -0.0083,0.04961 -0.0021,0.01114 -0.0067,0.02183 -0.0083,0.03307 -0.0011,0.0082 0,0.01654 0,0.02479 0,0.01103 0,0.02204 0,0.03307 0,0.0083 0.0013,0.01664 0,0.02479 -0.0013,0.0086 -0.0062,0.01635 -0.0083,0.02479 -0.0034,0.01363 -0.006,0.02748 -0.0083,0.04134 -5.29e-4,0.0027 7.94e-4,0.0056 0,0.0083 -0.0021,0.0084 -0.0066,0.01624 -0.0083,0.02479 -0.0026,0.01326 0.0026,0.02809 0,0.04134 -0.0013,0.006 -0.0068,0.01056 -0.0083,0.01654 -0.0033,0.01336 0.0024,0.02775 0,0.04134 -0.0013,0.0086 -0.0062,0.01635 -0.0083,0.02479 -7.94e-4,0.0027 0.0013,0.0058 0,0.0083 -0.0019,0.0035 -0.0075,0.0044 -0.0083,0.0083 -0.0021,0.0108 0,0.02204 0,0.03307 0,0.01654 0,0.03307 0,0.04961 0,0.0021 -0.0013,0.02413 0,0.02479 0.0049,0.0024 0.01103,0 0.01654,0 0.02543,0 0.05077,0.0035 0.07441,-0.0083 0.0099,-0.005 0.01487,-0.01984 0.02479,-0.02479 0.01016,-0.0051 0.02291,-0.0032 0.03307,-0.0083 0.007,-0.0035 0.01103,-0.01103 0.01654,-0.01654 0.0055,-0.0055 0.01167,-0.01045 0.01654,-0.01654 0.02125,-0.02657 0.02238,-0.04125 0.04134,-0.07441 0.0019,-0.0034 0.0055,-0.0055 0.0083,-0.0083 0.01103,-0.01929 0.02312,-0.038 0.03307,-0.05788 0.02146,-0.04293 -0.0075,-0.009 0.02479,-0.04134 0.0028,-0.0028 0.0055,-0.0055 0.0083,-0.0083 0,-0.0028 -0.0019,-0.0063 0,-0.0083 0.0019,-0.0019 0.0074,-0.0026 0.0083,0 0.0013,0.004 0,0.0719 0,0.07441 0,0.02756 0,0.05512 0,0.08268 0,0.01103 0.0019,0.0222 0,0.03307 -0.0021,0.01214 -0.01265,0.02138 -0.01654,0.03307 -0.0019,0.0057 0.0024,0.01992 0,0.02479 -0.0019,0.0035 -0.0065,0.0048 -0.0083,0.0083 -0.0013,0.0024 0,0.0055 0,0.0083 0,0.0028 0,0.0055 0,0.0083"
       id="path3244-7"
       inkscape:connector-curvature="0"
       inkscape:export-xdpi="96"
       inkscape:export-ydpi="96" />
    <path
       style="fill:none;stroke:#ffffff;stroke-width:0.26458332px;stroke-linecap:butt;stroke-linejoin:miter;stroke-opacity:1"
       d="m 71.905067,94.888442 c 0.01132,0.05058 -0.04187,0.08584 -0.04961,0.132291 -0.0013,0.0082 0.0013,0.01664 0,0.02479 -0.0013,0.0086 -0.0064,0.0163 -0.0083,0.02479 -0.0037,0.01635 -0.005,0.03317 -0.0083,0.04961 -0.0021,0.01114 -0.0067,0.02183 -0.0083,0.03307 -0.0011,0.0082 0,0.01654 0,0.02479 0,0.01103 0,0.02204 0,0.03307 0,0.0083 0.0013,0.01664 0,0.02479 -0.0013,0.0086 -0.0062,0.01635 -0.0083,0.02479 -0.0034,0.01363 -0.006,0.02748 -0.0083,0.04134 -5.29e-4,0.0027 7.94e-4,0.0056 0,0.0083 -0.0021,0.0084 -0.0066,0.01624 -0.0083,0.02479 -0.0026,0.01326 0.0026,0.02809 0,0.04134 -0.0013,0.006 -0.0068,0.01056 -0.0083,0.01654 -0.0033,0.01336 0.0024,0.02775 0,0.04134 -0.0013,0.0086 -0.0062,0.01635 -0.0083,0.02479 -7.94e-4,0.0027 0.0013,0.0058 0,0.0083 -0.0019,0.0035 -0.0075,0.0044 -0.0083,0.0083 -0.0021,0.0108 0,0.02204 0,0.03307 0,0.01654 0,0.03307 0,0.04961 0,0.0021 -0.0013,0.02413 0,0.02479 0.0049,0.0024 0.01103,0 0.01654,0 0.02543,0 0.05077,0.0035 0.07441,-0.0083 0.0099,-0.005 0.01487,-0.01984 0.02479,-0.02479 0.01016,-0.0051 0.02291,-0.0032 0.03307,-0.0083 0.007,-0.0035 0.01103,-0.01103 0.01654,-0.01654 0.0055,-0.0055 0.01167,-0.01045 0.01654,-0.01654 0.02125,-0.02657 0.02238,-0.04125 0.04134,-0.07441 0.0019,-0.0034 0.0055,-0.0055 0.0083,-0.0083 0.01103,-0.01929 0.02312,-0.038 0.03307,-0.05788 0.02146,-0.04293 -0.0075,-0.009 0.02479,-0.04134 0.0028,-0.0028 0.0055,-0.0055 0.0083,-0.0083 0,-0.0028 -0.0019,-0.0063 0,-0.0083 0.0019,-0.0019 0.0074,-0.0026 0.0083,0 0.0013,0.004 0,0.0719 0,0.07441 0,0.02756 0,0.05512 0,0.08268 0,0.01103 0.0019,0.0222 0,0.03307 -0.0021,0.01214 -0.01265,0.02138 -0.01654,0.03307 -0.0019,0.0057 0.0024,0.01992 0,0.02479 -0.0019,0.0035 -0.0065,0.0048 -0.0083,0.0083 -0.0013,0.0024 0,0.0055 0,0.0083 0,0.0028 0,0.0055 0,0.0083"
       id="path3244-76"
       inkscape:connector-curvature="0"
       inkscape:export-xdpi="96"
       inkscape:export-ydpi="96" />
    <path
       style="fill:none;stroke:#ffffff;stroke-width:0.26458332px;stroke-linecap:butt;stroke-linejoin:miter;stroke-opacity:1"
       d="m 71.921607,94.623822 c 0.01132,0.05058 -0.04187,0.08584 -0.04961,0.132291 -0.0013,0.0082 0.0013,0.01664 0,0.02479 -0.0013,0.0086 -0.0064,0.0163 -0.0083,0.02479 -0.0037,0.01635 -0.005,0.03317 -0.0083,0.04961 -0.0021,0.01114 -0.0067,0.02183 -0.0083,0.03307 -0.0011,0.0082 0,0.01654 0,0.02479 0,0.01103 0,0.02204 0,0.03307 0,0.0083 0.0013,0.01664 0,0.02479 -0.0013,0.0086 -0.0062,0.01635 -0.0083,0.02479 -0.0034,0.01363 -0.006,0.02748 -0.0083,0.04134 -5.29e-4,0.0027 7.94e-4,0.0056 0,0.0083 -0.0021,0.0084 -0.0066,0.01624 -0.0083,0.02479 -0.0026,0.01326 0.0026,0.02809 0,0.04134 -0.0013,0.006 -0.0068,0.01056 -0.0083,0.01654 -0.0033,0.01336 0.0024,0.02775 0,0.04134 -0.0013,0.0086 -0.0062,0.01635 -0.0083,0.02479 -7.94e-4,0.0027 0.0013,0.0058 0,0.0083 -0.0019,0.0035 -0.0075,0.0044 -0.0083,0.0083 -0.0021,0.0108 0,0.02204 0,0.03307 0,0.01654 0,0.03307 0,0.04961 0,0.0021 -0.0013,0.02413 0,0.02479 0.0049,0.0024 0.01103,0 0.01654,0 0.02543,0 0.05077,0.0035 0.07441,-0.0083 0.0099,-0.005 0.01487,-0.01984 0.02479,-0.02479 0.01016,-0.0051 0.02291,-0.0032 0.03307,-0.0083 0.007,-0.0035 0.01103,-0.01103 0.01654,-0.01654 0.0055,-0.0055 0.01167,-0.01045 0.01654,-0.01654 0.02125,-0.02657 0.02238,-0.04125 0.04134,-0.07441 0.0019,-0.0034 0.0055,-0.0055 0.0083,-0.0083 0.01103,-0.01929 0.02312,-0.038 0.03307,-0.05788 0.02146,-0.04293 -0.0075,-0.009 0.02479,-0.04134 0.0028,-0.0028 0.0055,-0.0055 0.0083,-0.0083 0,-0.0028 -0.0019,-0.0063 0,-0.0083 0.0019,-0.0019 0.0074,-0.0026 0.0083,0 0.0013,0.004 0,0.0719 0,0.07441 0,0.02756 0,0.05512 0,0.08268 0,0.01103 0.0019,0.0222 0,0.03307 -0.0021,0.01214 -0.01265,0.02138 -0.01654,0.03307 -0.0019,0.0057 0.0024,0.01992 0,0.02479 -0.0019,0.0035 -0.0065,0.0048 -0.0083,0.0083 -0.0013,0.0024 0,0.0055 0,0.0083 0,0.0028 0,0.0055 0,0.0083"
       id="path3244-6"
       inkscape:connector-curvature="0"
       inkscape:export-xdpi="96"
       inkscape:export-ydpi="96" />
    <path
       style="fill:none;stroke:#ffffff;stroke-width:0.26458332px;stroke-linecap:butt;stroke-linejoin:miter;stroke-opacity:1"
       d="m 72.483843,95.285317 c 0.01132,0.05058 -0.04187,0.08584 -0.04961,0.132291 -0.0013,0.0082 0.0013,0.01664 0,0.02479 -0.0013,0.0086 -0.0064,0.0163 -0.0083,0.02479 -0.0037,0.01635 -0.005,0.03317 -0.0083,0.04961 -0.0021,0.01114 -0.0067,0.02183 -0.0083,0.03307 -0.0011,0.0082 0,0.01654 0,0.02479 0,0.01103 0,0.02204 0,0.03307 0,0.0083 0.0013,0.01664 0,0.02479 -0.0013,0.0086 -0.0062,0.01635 -0.0083,0.02479 -0.0034,0.01363 -0.006,0.02748 -0.0083,0.04134 -5.29e-4,0.0027 7.94e-4,0.0056 0,0.0083 -0.0021,0.0084 -0.0066,0.01624 -0.0083,0.02479 -0.0026,0.01326 0.0026,0.02809 0,0.04134 -0.0013,0.006 -0.0068,0.01056 -0.0083,0.01654 -0.0033,0.01336 0.0024,0.02775 0,0.04134 -0.0013,0.0086 -0.0062,0.01635 -0.0083,0.02479 -7.94e-4,0.0027 0.0013,0.0058 0,0.0083 -0.0019,0.0035 -0.0075,0.0044 -0.0083,0.0083 -0.0021,0.0108 0,0.02204 0,0.03307 0,0.01654 0,0.03307 0,0.04961 0,0.0021 -0.0013,0.02413 0,0.02479 0.0049,0.0024 0.01103,0 0.01654,0 0.02543,0 0.05077,0.0035 0.07441,-0.0083 0.0099,-0.005 0.01487,-0.01984 0.02479,-0.02479 0.01016,-0.0051 0.02291,-0.0032 0.03307,-0.0083 0.007,-0.0035 0.01103,-0.01103 0.01654,-0.01654 0.0055,-0.0055 0.01167,-0.01045 0.01654,-0.01654 0.02125,-0.02657 0.02238,-0.04125 0.04134,-0.07441 0.0019,-0.0034 0.0055,-0.0055 0.0083,-0.0083 0.01103,-0.01929 0.02312,-0.038 0.03307,-0.05788 0.02146,-0.04293 -0.0075,-0.009 0.02479,-0.04134 0.0028,-0.0028 0.0055,-0.0055 0.0083,-0.0083 0,-0.0028 -0.0019,-0.0063 0,-0.0083 0.0019,-0.0019 0.0074,-0.0026 0.0083,0 0.0013,0.004 0,0.0719 0,0.07441 0,0.02756 0,0.05512 0,0.08268 0,0.01103 0.0019,0.0222 0,0.03307 -0.0021,0.01214 -0.01265,0.02138 -0.01654,0.03307 -0.0019,0.0057 0.0024,0.01992 0,0.02479 -0.0019,0.0035 -0.0065,0.0048 -0.0083,0.0083 -0.0013,0.0024 0,0.0055 0,0.0083 0,0.0028 0,0.0055 0,0.0083"
       id="path3244-8"
       inkscape:connector-curvature="0"
       inkscape:export-xdpi="96"
       inkscape:export-ydpi="96" />
    <path
       style="fill:none;stroke:#fffff6;stroke-width:0.26458332px;stroke-linecap:butt;stroke-linejoin:miter;stroke-opacity:1"
       d="m 71.751692,94.684701 c -0.0083,0.01378 -0.01654,0.02756 -0.02479,0.04134 0,0.0055 0.0019,0.0113 0,0.01654 -0.0013,0.0037 -0.0073,0.0045 -0.0083,0.0083 -0.0021,0.008 0.0016,0.01669 0,0.02479 -0.0013,0.006 -0.0071,0.0105 -0.0083,0.01654 -0.0027,0.01352 0,0.02756 0,0.04134 0,0.0055 0.0013,0.01119 0,0.01654 -0.003,0.01196 -0.01413,0.02098 -0.01654,0.03307 0,0.04702 0.0037,0.0055 -0.0083,0.04134 -0.0021,0.0066 0.0026,0.02779 0,0.03307 -0.0019,0.0035 -0.0073,0.0045 -0.0083,0.0083 -0.0016,0.0065 0,0.05637 0,0.06615 0,0.0055 0.0013,0.01119 0,0.01654 -0.0016,0.006 -0.0071,0.0105 -0.0083,0.01654 -0.0021,0.0108 0,0.02204 0,0.03307 0,0.01929 0,0.03858 0,0.05788 0,0.02479 0,0.04961 0,0.07441 0,0.0028 0,0.0055 0,0.0083 0,0.0028 -0.0019,0.0063 0,0.0083 0.0019,0.0019 0.0063,-0.0019 0.0083,0 0.0019,0.0019 -0.0019,0.0063 0,0.0083 0.0019,0.0019 0.0063,-0.0019 0.0083,0 0.0019,0.0019 -0.0019,0.0063 0,0.0083 0.0039,0.0039 0.01162,-0.0024 0.01654,0 0.0035,0.0019 0.0055,0.0055 0.0083,0.0083 0.0028,0.0028 0.0065,0.0048 0.0083,0.0083 0.0013,0.0024 -0.0013,0.0058 0,0.0083 0.0019,0.0035 0.0065,0.0048 0.0083,0.0083 0.0024,0.0049 -0.0024,0.01162 0,0.01654 0.0019,0.0035 0.0065,0.0048 0.0083,0.0083 0.0026,0.0052 -0.0026,0.03612 0,0.04134 0.0019,0.0035 0.0065,0.0048 0.0083,0.0083 0.0013,0.0024 -0.0013,0.0058 0,0.0083 0.01021,0.02043 0.0083,-0.0029 0.0083,0.01654"
       id="path3293"
       inkscape:connector-curvature="0"
       inkscape:export-xdpi="96"
       inkscape:export-ydpi="96" />
    <path
       style="fill:none;stroke:#ffffff;stroke-width:0.17458227px;stroke-linecap:butt;stroke-linejoin:miter;stroke-opacity:1"
       d="m 71.657505,94.473257 c -0.0049,0.05058 0.01823,0.08584 0.0216,0.132291 5.66e-4,0.0082 -5.66e-4,0.01664 0,0.02479 5.66e-4,0.0086 0.0028,0.0163 0.0036,0.02479 0.0016,0.01635 0.0022,0.03317 0.0036,0.04961 9.14e-4,0.01114 0.0029,0.02183 0.0036,0.03307 4.79e-4,0.0082 0,0.01654 0,0.02479 0,0.01103 0,0.02204 0,0.03307 0,0.0083 -5.66e-4,0.01664 0,0.02479 5.66e-4,0.0086 0.0027,0.01635 0.0036,0.02479 0.0015,0.01363 0.0026,0.02748 0.0036,0.04134 2.3e-4,0.0027 -3.45e-4,0.0056 0,0.0083 9.15e-4,0.0084 0.0029,0.01624 0.0036,0.02479 0.0011,0.01326 -0.0011,0.02809 0,0.04134 5.66e-4,0.006 0.003,0.01056 0.0036,0.01654 0.0014,0.01336 -0.001,0.02775 0,0.04134 5.66e-4,0.0086 0.0027,0.01635 0.0036,0.02479 3.46e-4,0.0027 -5.66e-4,0.0058 0,0.0083 8.28e-4,0.0035 0.0033,0.0044 0.0036,0.0083 9.14e-4,0.0108 0,0.02204 0,0.03307 0,0.01654 0,0.03307 0,0.04961 0,0.0021 5.66e-4,0.02413 0,0.02479 -0.0021,0.0024 -0.0048,0 -0.0072,0 -0.01107,0 -0.0221,0.0035 -0.0324,-0.0083 -0.0043,-0.005 -0.0065,-0.01984 -0.01079,-0.02479 -0.0044,-0.0051 -0.01,-0.0032 -0.0144,-0.0083 -0.003,-0.0035 -0.0048,-0.01103 -0.0072,-0.01654 -0.0024,-0.0055 -0.0051,-0.01045 -0.0072,-0.01654 -0.0093,-0.02657 -0.0097,-0.04125 -0.018,-0.07441 -8.28e-4,-0.0034 -0.0024,-0.0055 -0.0036,-0.0083 -0.0048,-0.01929 -0.01007,-0.038 -0.0144,-0.05788 -0.0093,-0.04293 0.0033,-0.009 -0.01079,-0.04134 -0.0012,-0.0028 -0.0024,-0.0055 -0.0036,-0.0083 0,-0.0028 8.27e-4,-0.0063 0,-0.0083 -8.27e-4,-0.0019 -0.0032,-0.0026 -0.0036,0 -5.66e-4,0.004 0,0.0719 0,0.07441 0,0.02756 0,0.05512 0,0.08268 0,0.01103 -8.27e-4,0.0222 0,0.03307 9.14e-4,0.01214 0.0055,0.02138 0.0072,0.03307 8.28e-4,0.0057 -0.001,0.01992 0,0.02479 8.28e-4,0.0035 0.0028,0.0048 0.0036,0.0083 5.66e-4,0.0024 0,0.0055 0,0.0083 0,0.0028 0,0.0055 0,0.0083"
       id="path3244-5"
       inkscape:connector-curvature="0"
       inkscape:export-xdpi="96"
       inkscape:export-ydpi="96" />
    <rect
       style="fill:#ffffff;fill-opacity:1;stroke:#fffff6;stroke-width:0.26499999;stroke-miterlimit:4;stroke-dasharray:none;stroke-dashoffset:0;stroke-opacity:1"
       id="rect3309"
       width="0.41811201"
       height="0.150565"
       x="71.633453"
       y="95.012642"
       inkscape:export-xdpi="96"
       inkscape:export-ydpi="96" />
    <ellipse
       style="fill:#0091ff;fill-opacity:1;stroke:#0091ff;stroke-width:0.10513838;stroke-miterlimit:4;stroke-dasharray:none;stroke-dashoffset:0;stroke-opacity:1"
       id="path2561-1-6-5-5-3-7-7-8"
       cx="77.808136"
       cy="84.118546"
       rx="6.2783604"
       ry="1.9879558"
       inkscape:export-xdpi="96"
       inkscape:export-ydpi="96" />
    <rect
       style="fill:#0091ff;fill-opacity:1;stroke:#0091ff;stroke-width:0.30498961;stroke-miterlimit:4;stroke-dasharray:none;stroke-dashoffset:0;stroke-opacity:1"
       id="rect3328"
       width="12.273531"
       height="13.221229"
       x="71.682228"
       y="84.014381"
       inkscape:export-xdpi="96"
       inkscape:export-ydpi="96" />
    <circle
       style="fill:none;fill-opacity:1;stroke:#000000;stroke-width:0.26499999;stroke-miterlimit:4;stroke-dasharray:none;stroke-dashoffset:0;stroke-opacity:1"
       id="path3330"
       cx="118.06435"
       cy="70.805008"
       r="6.614583"
       inkscape:export-xdpi="96"
       inkscape:export-ydpi="96" />
    <circle
       style="fill:none;fill-opacity:1;stroke:#000000;stroke-width:0.26499999;stroke-miterlimit:4;stroke-dasharray:none;stroke-dashoffset:0;stroke-opacity:1"
       id="path3330-1"
       cx="117.82447"
       cy="102.68758"
       r="6.6145835"
       inkscape:export-xdpi="96"
       inkscape:export-ydpi="96" />
    <circle
       style="fill:none;fill-opacity:1;stroke:#000000;stroke-width:0.26499999;stroke-miterlimit:4;stroke-dasharray:none;stroke-dashoffset:0;stroke-opacity:1"
       id="path3330-4"
       cx="149.44017"
       cy="70.831604"
       r="6.6145835"
       inkscape:export-xdpi="96"
       inkscape:export-ydpi="96" />
    <circle
       style="fill:none;fill-opacity:1;stroke:#000000;stroke-width:0.26499999;stroke-miterlimit:4;stroke-dasharray:none;stroke-dashoffset:0;stroke-opacity:1"
       id="path3330-4-3"
       cx="149.44017"
       cy="102.5816"
       r="6.6145835"
       inkscape:export-xdpi="96"
       inkscape:export-ydpi="96" />
    <path
       style="fill:none;stroke:#000000;stroke-width:0.5;stroke-linecap:butt;stroke-linejoin:miter;stroke-miterlimit:4;stroke-dasharray:none;stroke-opacity:1"
       d="M 124.35417,102.53125 H 142.875"
       id="path3377"
       inkscape:connector-curvature="0"
       inkscape:export-xdpi="96"
       inkscape:export-ydpi="96" />
    <path
       style="fill:none;stroke:#000000;stroke-width:0.5;stroke-linecap:butt;stroke-linejoin:miter;stroke-miterlimit:4;stroke-dasharray:none;stroke-opacity:1"
       d="m 149.48958,77.395833 0.0111,18.520823"
       id="path3377-3"
       inkscape:connector-curvature="0"
       inkscape:export-xdpi="96"
       inkscape:export-ydpi="96" />
    <path
       style="fill:none;stroke:#000000;stroke-width:0.5;stroke-linecap:butt;stroke-linejoin:miter;stroke-miterlimit:4;stroke-dasharray:none;stroke-opacity:1"
       d="M 124.35417,70.781251 H 142.875"
       id="path3377-8"
       inkscape:connector-curvature="0"
       inkscape:export-xdpi="96"
       inkscape:export-ydpi="96" />
    <path
       style="fill:none;stroke:#000000;stroke-width:0.85320526;stroke-linecap:butt;stroke-linejoin:miter;stroke-miterlimit:4;stroke-dasharray:none;stroke-opacity:1"
       d="m 122.50208,75.54375 23.01875,21.695833"
       id="path3377-8-4"
       inkscape:connector-curvature="0"
       inkscape:export-xdpi="96"
       inkscape:export-ydpi="96" />
    <text
       xml:space="preserve"
       style="font-style:normal;font-variant:normal;font-weight:normal;font-stretch:normal;font-size:8.46666622px;line-height:1.25;font-family:sans-serif;-inkscape-font-specification:'sans-serif, Normal';font-variant-ligatures:normal;font-variant-caps:normal;font-variant-numeric:normal;font-feature-settings:normal;text-align:start;letter-spacing:0px;word-spacing:0px;writing-mode:lr-tb;text-anchor:start;fill:#000000;fill-opacity:1;stroke:none;stroke-width:0.26458332"
       x="115.09374"
       y="105.70625"
       id="text3435"
       inkscape:export-xdpi="96"
       inkscape:export-ydpi="96"><tspan
         sodipodi:role="line"
         id="tspan3433"
         x="115.09374"
         y="105.70625"
         style="font-style:normal;font-variant:normal;font-weight:normal;font-stretch:normal;font-size:8.46666622px;font-family:sans-serif;-inkscape-font-specification:'sans-serif, Normal';font-variant-ligatures:normal;font-variant-caps:normal;font-variant-numeric:normal;font-feature-settings:normal;text-align:start;writing-mode:lr-tb;text-anchor:start;stroke-width:0.26458332">8</tspan></text>
    <text
       xml:space="preserve"
       style="font-style:normal;font-variant:normal;font-weight:normal;font-stretch:normal;font-size:8.46666622px;line-height:1.25;font-family:sans-serif;-inkscape-font-specification:'sans-serif, Normal';font-variant-ligatures:normal;font-variant-caps:normal;font-variant-numeric:normal;font-feature-settings:normal;text-align:start;letter-spacing:0px;word-spacing:0px;writing-mode:lr-tb;text-anchor:start;fill:#000000;fill-opacity:1;stroke:none;stroke-width:0.26458332"
       x="147.1657"
       y="105.51041"
       id="text3445"
       inkscape:export-xdpi="96"
       inkscape:export-ydpi="96"><tspan
         sodipodi:role="line"
         id="tspan3443"
         x="147.1657"
         y="105.51041"
         style="font-style:normal;font-variant:normal;font-weight:normal;font-stretch:normal;font-size:8.46666622px;font-family:sans-serif;-inkscape-font-specification:'sans-serif, Normal';font-variant-ligatures:normal;font-variant-caps:normal;font-variant-numeric:normal;font-feature-settings:normal;text-align:start;writing-mode:lr-tb;text-anchor:start;stroke-width:0.26458332">9</tspan></text>
    <text
       xml:space="preserve"
       style="font-style:normal;font-variant:normal;font-weight:normal;font-stretch:normal;font-size:8.46666622px;line-height:1.25;font-family:sans-serif;-inkscape-font-specification:'sans-serif, Normal';font-variant-ligatures:normal;font-variant-caps:normal;font-variant-numeric:normal;font-feature-settings:normal;text-align:start;letter-spacing:0px;word-spacing:0px;writing-mode:lr-tb;text-anchor:start;fill:#000000;fill-opacity:1;stroke:none;stroke-width:0.26458332"
       x="146.66901"
       y="74.349228"
       id="text3449"
       inkscape:export-xdpi="96"
       inkscape:export-ydpi="96"><tspan
         sodipodi:role="line"
         id="tspan3447"
         x="146.66901"
         y="74.349228"
         style="font-style:normal;font-variant:normal;font-weight:normal;font-stretch:normal;font-size:8.46666622px;font-family:sans-serif;-inkscape-font-specification:'sans-serif, Normal';font-variant-ligatures:normal;font-variant-caps:normal;font-variant-numeric:normal;font-feature-settings:normal;text-align:start;writing-mode:lr-tb;text-anchor:start;stroke-width:0.26458332">5</tspan></text>
    <text
       xml:space="preserve"
       style="font-style:normal;font-variant:normal;font-weight:normal;font-stretch:normal;font-size:8.46666622px;line-height:1.25;font-family:sans-serif;-inkscape-font-specification:'sans-serif, Normal';font-variant-ligatures:normal;font-variant-caps:normal;font-variant-numeric:normal;font-feature-settings:normal;text-align:start;letter-spacing:0px;word-spacing:0px;writing-mode:lr-tb;text-anchor:start;fill:#000000;fill-opacity:1;stroke:none;stroke-width:0.26458332"
       x="115.49062"
       y="73.559372"
       id="text3453"
       inkscape:export-xdpi="96"
       inkscape:export-ydpi="96"><tspan
         sodipodi:role="line"
         id="tspan3451"
         x="115.49062"
         y="73.559372"
         style="font-style:normal;font-variant:normal;font-weight:normal;font-stretch:normal;font-size:8.46666622px;font-family:sans-serif;-inkscape-font-specification:'sans-serif, Normal';font-variant-ligatures:normal;font-variant-caps:normal;font-variant-numeric:normal;font-feature-settings:normal;text-align:start;writing-mode:lr-tb;text-anchor:start;stroke-width:0.26458332">3</tspan></text>
  </g>
</svg>
